
  <svg
    xmlns="http://www.w3.org/2000/svg"
    width="20"
    height="24"
    viewBox="0 0 20 24"
    fill="none"
  >
    <path
      d="M12.7287 23.333H6.60591C2.96349 23.333 0 20.3695 0 16.7271C0 15.9859 0.601525 15.3844 1.34269 15.3844C2.08492 15.3844 2.68537 15.9859 2.68537 16.7271C2.68537 18.8883 4.44482 20.6478 6.60608 20.6478H12.7288C14.89 20.6478 16.6495 18.8883 16.6495 16.7271C16.6495 15.9859 17.2511 15.3844 17.9922 15.3844C18.7345 15.3844 19.3349 15.9859 19.3349 16.7271C19.3349 20.3695 16.3714 23.333 12.729 23.333H12.7287Z"
      fill="#666666"
    />
    <path
      d="M9.66739 17.5861C8.92623 17.5861 8.32471 16.9846 8.32471 16.2434V2.54792C8.32471 1.80676 8.92623 1.20523 9.66739 1.20523C10.4096 1.20523 11.0101 1.80676 11.0101 2.54792V16.2434C11.0101 16.9857 10.4086 17.5861 9.66739 17.5861Z"
      fill="#666666"
    />
    <path
      d="M3.31554 10.2284C2.99543 10.2284 2.67321 10.1145 2.41648 9.88253C1.86652 9.38627 1.82246 8.53663 2.31981 7.98559L8.67026 0.949881C8.92269 0.670609 9.28039 0.509469 9.6585 0.507324H9.66709C10.0409 0.507324 10.3975 0.663077 10.651 0.936985L17.0026 7.78461C17.5074 8.32814 17.4741 9.17778 16.9317 9.68155C16.3881 10.1864 15.5385 10.1531 15.0347 9.61065L9.68108 3.83822L4.31342 9.78472C4.04703 10.079 3.68182 10.2284 3.31554 10.2284Z"
      fill="#666666"
    />
  </svg>

